<!--?xml version="1.0" standalone="no"?-->
              <svg id="sw-js-blob-svg" viewBox="0 0 100 100" xmlns="http://www.w3.org/2000/svg" version="1.1">
                    <defs> 
                        <linearGradient id="sw-gradient" x1="0" x2="1" y1="1" y2="0">
                            <stop id="stop1" stop-color="rgba(115.049, 91.655, 80.583, 1)" offset="0%"></stop>
                            <stop id="stop2" stop-color="rgba(31, 251, 53.512, 1)" offset="100%"></stop>
                        </linearGradient>
                    </defs>
                <path fill="url(#sw-gradient)" d="M20.6,-25.2C27.3,-19,33.6,-13,35.7,-5.6C37.9,1.9,35.9,10.7,31,16.7C26.1,22.6,18.3,25.6,9.9,29.7C1.5,33.9,-7.3,39.2,-15.7,38.2C-24,37.3,-31.8,30.1,-35.5,21.5C-39.2,13,-38.8,3.1,-37.5,-7C-36.2,-17.1,-34,-27.5,-27.6,-33.8C-21.2,-40,-10.6,-42.2,-1.8,-40.1C7,-37.9,14,-31.5,20.6,-25.2Z" width="100%" height="100%" transform="translate(50 50)" stroke-width="0" style="transition: 0.3s;"></path>
              </svg>